<svg width="23" height="24" viewBox="0 0 23 24" fill="none" xmlns="http://www.w3.org/2000/svg">
<path d="M21.9686 14.5658C22.3049 15.1361 21.9748 15.8981 20.9058 16.7527C19.7212 17.6903 18.501 18.5843 17.2987 19.5003C16.8131 20.163 16.108 20.4969 15.3479 20.6388C14.0448 20.8942 13.1554 19.8136 13.6647 18.5911C13.9402 17.9305 14.2768 17.2566 15.0418 16.9923C16.3555 15.8859 17.83 15.0186 19.4064 14.352C20.6384 13.8315 21.6047 13.957 21.9686 14.5658Z" fill="#EE2B69"/>
<path d="M13.1145 8.42935C12.747 8.66101 12.3714 8.92099 12.0933 9.2487C10.8586 10.7012 9.64114 12.1712 8.71715 13.8518C8.52999 14.1903 8.37838 14.559 8.2781 14.9318C8.12787 15.4945 8.24957 16.0064 8.76433 16.3512C9.27402 16.6926 9.77744 16.5988 10.2763 16.2952C10.6609 16.0618 10.9729 15.7498 11.2192 15.3862C11.6839 14.6988 12.1182 13.9911 12.3865 13.5708C12.9899 12.5201 13.4462 11.7668 13.8574 10.99C14.1073 10.5171 14.3214 10.0187 14.4919 9.51072C14.6215 9.12782 14.5767 8.7281 14.2156 8.45178C13.861 8.17952 13.4626 8.21156 13.1145 8.42935Z" fill="#EE2B69"/>
<path d="M4.90441 4.70134C5.08127 5.24328 5.32417 5.79569 5.11857 6.39633L5.12605 6.40102C5.41645 8.38557 5.6876 10.3681 5.45998 12.3771C5.39562 12.9531 5.27451 13.5347 5.12427 14.0975C4.98111 14.665 4.60217 15.0295 4.00202 15.1168C3.40237 15.2044 2.97568 14.8897 2.63889 14.4345C2.32454 13.9933 2.17771 13.4705 2.06698 12.9394C1.68018 11.1546 1.72322 9.35197 1.85445 7.54273C1.58698 6.61886 1.80173 5.70992 2.01418 4.82073C2.19128 4.11816 2.61594 3.58428 3.40733 3.52445C4.05413 3.47856 4.642 3.91681 4.90441 4.70134Z" fill="#EE2B69"/>
</svg>
