<svg width="64" height="64" viewBox="0 0 64 64" fill="none" xmlns="http://www.w3.org/2000/svg">
<path d="M30.3802 27.1979C30.5885 27.3802 30.8177 27.5208 31.0729 27.6146C31.3333 27.7135 31.5989 27.7604 31.875 27.7604C32.1458 27.7604 32.4114 27.7135 32.6718 27.6146C32.927 27.5208 33.1562 27.3802 33.3645 27.1979L43.5364 18.1563C44.0468 17.7083 44.302 17.1458 44.302 16.4635V2.90104C44.302 2.60417 44.2448 2.3125 44.1302 2.03646C44.0156 1.76042 43.8541 1.51563 43.6406 1.30208C43.427 1.09375 43.1875 0.927083 42.9062 0.8125C42.6302 0.697917 42.3437 0.640625 42.0416 0.640625H21.7031C21.401 0.640625 21.1145 0.697917 20.8385 0.8125C20.5625 0.927083 20.3177 1.09375 20.1041 1.30208C19.8906 1.51563 19.7291 1.76042 19.6145 2.03646C19.5 2.3125 19.4427 2.60417 19.4427 2.90104V16.4635C19.4427 17.1458 19.6979 17.7083 20.2083 18.1563L30.3802 27.1979ZM23.9635 5.16146H39.7812V15.4479L31.875 22.474L23.9635 15.4479V5.16146ZM33.3645 37.3698C33.1562 37.1875 32.927 37.0521 32.6718 36.9531C32.4114 36.8542 32.1458 36.8073 31.875 36.8073C31.5989 36.8073 31.3333 36.8542 31.0729 36.9531C30.8177 37.0521 30.5885 37.1875 30.3802 37.3698L20.2083 46.4115C19.6979 46.8594 19.4427 47.4271 19.4427 48.1042V61.6667C19.4427 61.9688 19.5 62.2552 19.6145 62.5313C19.7291 62.8073 19.8906 63.0521 20.1041 63.2656C20.3177 63.4792 20.5625 63.6406 20.8385 63.7552C21.1145 63.8698 21.401 63.9271 21.7031 63.9271H42.0416C42.3437 63.9271 42.6302 63.8698 42.9062 63.7552C43.1875 63.6406 43.427 63.4792 43.6406 63.2656C43.8541 63.0521 44.0156 62.8073 44.1302 62.5313C44.2448 62.2552 44.302 61.9688 44.302 61.6667V48.1042C44.302 47.4271 44.0468 46.8594 43.5364 46.4115L33.3645 37.3698ZM39.7812 59.4063H23.9635V49.125L31.875 42.0938L39.7812 49.125V59.4063ZM26.7864 30.7917L17.7448 20.625C17.2968 20.1094 16.7343 19.8542 16.052 19.8542H2.48954C2.19267 19.8542 1.901 19.9115 1.62496 20.026C1.34892 20.1406 1.10413 20.3021 0.890584 20.5156C0.682251 20.7292 0.515585 20.974 0.401001 21.25C0.286418 21.526 0.229126 21.8125 0.229126 22.1146V42.4531C0.229126 42.7552 0.286418 43.0417 0.401001 43.3229C0.515585 43.599 0.682251 43.8438 0.890584 44.0521C1.10413 44.2656 1.34892 44.4271 1.62496 44.5417C1.901 44.6563 2.19267 44.7135 2.48954 44.7135H16.052C16.7343 44.7135 17.2968 44.4583 17.7448 43.9479L26.7864 33.776C26.9687 33.5677 27.1093 33.3385 27.2031 33.0833C27.302 32.8229 27.3489 32.5573 27.3489 32.2865C27.3489 32.0104 27.302 31.7448 27.2031 31.4896C27.1093 31.2292 26.9687 31 26.7864 30.7917ZM15.0364 40.1979H4.74996V24.375H15.0364L22.0625 32.2865L15.0364 40.1979ZM61.2552 19.8542H47.6927C47.0104 19.8542 46.4479 20.1094 46 20.625L36.9583 30.7917C36.776 31 36.6354 31.2292 36.5416 31.4896C36.4427 31.7448 36.3958 32.0104 36.3958 32.2865C36.3958 32.5573 36.4427 32.8229 36.5416 33.0833C36.6354 33.3385 36.776 33.5677 36.9583 33.776L46 43.9479C46.4479 44.4583 47.0104 44.7135 47.6927 44.7135H61.2552C61.552 44.7135 61.8437 44.6563 62.1198 44.5417C62.3958 44.4271 62.6406 44.2656 62.8541 44.0521C63.0625 43.8438 63.2291 43.599 63.3437 43.3229C63.4583 43.0417 63.5156 42.7552 63.5156 42.4531V22.1146C63.5156 21.8125 63.4583 21.526 63.3437 21.25C63.2291 20.974 63.0625 20.7292 62.8541 20.5156C62.6406 20.3021 62.3958 20.1406 62.1198 20.026C61.8437 19.9115 61.552 19.8542 61.2552 19.8542ZM58.9948 40.1979H48.7083L41.6823 32.2865L48.7083 24.375H58.9948V40.1979Z" fill="#5E17EB"/>
</svg>
